<svg viewBox="0 0 190 190" xmlns="http://www.w3.org/2000/svg">
  <defs></defs>
  <path d="M 93.415 165.436 C 91.914 165.436 90.697 164.219 90.697 162.718 L 90.697 137.525 C 90.697 136.024 91.914 134.807 93.415 134.807 C 94.916 134.807 96.133 136.024 96.133 137.525 L 96.133 162.718 C 96.133 164.219 94.916 165.436 93.415 165.436 Z" fill="#0a5b36"></path>
  <path d="M 121.567 166.489 C 120.066 166.489 118.849 165.272 118.849 163.771 L 118.849 124.425 C 118.849 122.924 120.066 121.707 121.567 121.707 C 123.068 121.707 124.285 122.924 124.285 124.425 L 124.285 163.77 C 124.284 165.272 123.068 166.489 121.567 166.489 Z" fill="#0a5b36"></path>
  <circle cx="91.505" cy="117.542" fill="#0f7a4f" r="24.332"></circle>
  <path d="M 115.837 117.543 C 115.837 130.979 104.942 141.874 91.505 141.874 C 85.772 141.874 80.501 139.891 76.342 136.571 C 78.525 137.216 80.834 137.56 83.227 137.56 C 96.663 137.56 107.555 126.664 107.555 113.228 C 107.555 105.525 103.975 98.655 98.39 94.199 C 108.475 97.168 115.837 106.495 115.837 117.543 Z" fill="#0c6842"></path>
  <circle cx="129.037" cy="59.41" fill="#158f5e" r="24.332"></circle>
  <path d="M 153.37 59.41 C 153.37 72.847 142.474 83.742 129.038 83.742 C 127.094 83.742 125.205 83.514 123.395 83.083 C 134.109 80.535 142.08 70.903 142.08 59.41 C 142.08 47.914 134.109 38.282 123.395 35.737 C 125.205 35.307 127.095 35.079 129.038 35.079 C 142.474 35.079 153.37 45.97 153.37 59.41 Z" fill="#0f7a4f"></path>
  <circle cx="160.91" cy="92.551" fill="#158f5e" r="24.332"></circle>
  <path d="M 185.241 92.552 C 185.241 105.989 174.346 116.884 160.909 116.884 C 158.698 116.884 156.555 116.587 154.517 116.033 C 166.441 114.462 175.642 104.262 175.642 91.912 C 175.642 80.687 168.041 71.236 157.703 68.43 C 158.752 68.293 159.824 68.221 160.91 68.221 C 174.346 68.221 185.241 79.112 185.241 92.552 Z" fill="#0f7a4f"></path>
  <path d="M 132.933 165.436 C 131.432 165.436 130.216 164.219 130.216 162.718 L 130.216 126.43 C 130.216 124.929 131.432 123.712 132.933 123.712 C 134.434 123.712 135.651 124.929 135.651 126.43 L 135.651 162.718 C 135.651 164.219 134.434 165.436 132.933 165.436 Z" fill="#0f7a4f"></path>
  <path d="M 145.292 135.778 C 134.802 135.778 126.298 127.274 126.298 116.784 L 126.298 75.243 C 126.298 64.753 134.802 56.25 145.292 56.25 C 155.782 56.25 164.285 64.753 164.285 75.243 L 164.285 116.784 C 164.285 127.274 155.782 135.778 145.292 135.778 Z" fill="#d2f0a2"></path>
  <path d="M 164.287 75.243 L 164.287 116.782 C 164.287 127.272 155.781 135.778 145.291 135.778 C 143.68 135.778 142.116 135.579 140.625 135.199 C 148.859 133.121 154.955 125.661 154.955 116.782 L 154.955 75.243 C 154.955 69.998 152.83 65.249 149.392 61.813 C 147.01 59.432 143.998 57.68 140.625 56.829 C 142.116 56.449 143.68 56.25 145.291 56.25 C 150.536 56.25 155.285 58.375 158.723 61.813 C 162.162 65.249 164.287 69.998 164.287 75.243 Z" fill="#bcea73"></path>
  <path d="M 153.232 107.817 C 152.17 106.756 150.45 106.756 149.389 107.817 L 148.01 109.196 L 148.01 103.259 C 148.01 103.259 148.01 103.258 148.01 103.258 L 148.01 92.633 C 148.01 91.132 146.793 89.915 145.292 89.915 C 143.791 89.915 142.574 91.132 142.574 92.633 L 142.574 96.697 L 139.833 93.956 C 138.772 92.895 137.051 92.894 135.99 93.956 C 134.929 95.017 134.929 96.738 135.99 97.799 L 142.574 104.384 L 142.574 115.755 L 142.574 115.759 L 142.574 161.244 C 142.574 162.746 143.791 163.962 145.292 163.962 C 146.793 163.962 148.01 162.746 148.01 161.244 L 148.01 116.883 L 153.233 111.661 C 154.293 110.599 154.293 108.879 153.232 107.817 Z" fill="#a3e440"></path>
  <path d="M 48.546 88.252 C 38.056 88.252 29.553 79.748 29.553 69.258 L 29.553 42.67 C 29.553 32.18 38.056 23.676 48.546 23.676 C 59.036 23.676 67.54 32.18 67.54 42.67 L 67.54 69.258 C 67.54 79.748 59.036 88.252 48.546 88.252 Z" fill="#d2f0a2"></path>
  <path d="M 67.539 42.669 L 67.539 69.259 C 67.539 79.749 59.037 88.252 48.547 88.252 C 46.752 88.252 45.01 88.002 43.363 87.536 C 51.334 85.28 57.173 77.954 57.173 69.26 L 57.173 42.669 C 57.173 37.424 55.048 32.675 51.609 29.24 C 49.351 26.978 46.524 25.287 43.364 24.394 C 45.011 23.927 46.752 23.677 48.547 23.677 C 53.792 23.677 58.541 25.802 61.977 29.24 C 65.415 32.675 67.539 37.424 67.539 42.669 Z" fill="#bcea73"></path>
  <path d="M 56.487 60.291 C 55.425 59.23 53.705 59.23 52.644 60.291 L 51.264 61.67 L 51.264 55.733 C 51.264 55.733 51.264 55.732 51.264 55.731 L 51.264 45.107 C 51.264 43.606 50.047 42.39 48.546 42.39 C 47.045 42.39 45.829 43.606 45.829 45.107 L 45.829 49.171 L 43.088 46.43 C 42.026 45.369 40.305 45.369 39.244 46.43 C 38.183 47.492 38.183 49.212 39.244 50.273 L 45.829 56.858 L 45.829 68.231 L 45.829 68.232 L 45.829 163.771 C 45.829 165.272 47.045 166.489 48.547 166.489 C 50.048 166.489 51.264 165.272 51.264 163.771 L 51.264 69.358 L 56.487 64.135 C 57.548 63.073 57.548 61.353 56.487 60.291 Z" fill="#a3e440"></path>
  <circle cx="75.172" cy="94.393" fill="#1ca56f" r="28.838"></circle>
  <path d="M 104.011 94.391 C 104.011 110.318 91.1 123.229 75.173 123.229 C 70.601 123.229 66.28 122.165 62.439 120.268 C 75.85 117.792 86.011 106.039 86.011 91.912 C 86.011 80.557 79.448 70.736 69.91 66.034 C 71.615 65.719 73.374 65.556 75.173 65.556 C 91.1 65.556 104.011 78.468 104.011 94.391 Z" fill="#158f5e"></path>
  <path d="M 83.617 81.202 C 82.556 80.141 80.835 80.141 79.774 81.203 L 77.89 83.086 L 77.89 79.949 C 77.89 78.448 76.673 77.231 75.172 77.231 C 73.671 77.231 72.454 78.448 72.454 79.949 L 72.454 108.711 C 72.454 110.213 73.671 111.429 75.172 111.429 C 76.673 111.429 77.89 110.213 77.89 108.711 L 77.89 90.773 L 83.617 85.045 C 84.679 83.984 84.679 82.264 83.617 81.202 Z" fill="#0f7a4f"></path>
  <path d="M 75.172 166.489 C 73.671 166.489 72.454 165.272 72.454 163.771 L 72.454 137.964 C 72.454 136.463 73.671 135.247 75.172 135.247 C 76.673 135.247 77.89 136.463 77.89 137.964 L 77.89 163.771 C 77.89 165.272 76.673 166.489 75.172 166.489 Z" fill="#0f7a4f"></path>
  <path d="M 129.037 100.558 C 129.037 133.979 120.462 133.382 109.884 133.382 C 99.307 133.382 90.732 133.979 90.732 100.558 C 90.732 67.137 101.54 29.431 109.884 29.431 C 118.229 29.431 129.037 67.137 129.037 100.558 Z" fill="#a3e440"></path>
  <path d="M 129.037 100.558 C 129.037 133.979 120.462 133.382 109.884 133.382 C 99.307 133.382 90.732 133.979 90.732 100.558 C 90.732 67.137 101.54 29.431 109.884 29.431 C 118.229 29.431 129.037 67.137 129.037 100.558 Z" fill="#a3e440"></path>
  <path d="M 129.035 100.557 C 129.035 133.98 120.462 133.382 109.884 133.382 C 108.162 133.382 106.489 133.399 104.899 133.278 C 113.056 132.672 119.063 128.525 119.063 100.557 C 119.063 73.557 112.006 43.763 104.899 33.309 C 106.588 30.822 108.282 29.432 109.884 29.432 C 118.229 29.432 129.035 67.139 129.035 100.557 Z" fill="#99d53b"></path>
  <path d="M 121.419 104.079 C 120.357 103.018 118.636 103.018 117.575 104.079 L 112.602 109.052 L 112.602 98.647 C 112.602 98.646 112.602 98.645 112.602 98.644 L 112.602 86.403 C 112.602 84.902 111.386 83.685 109.884 83.685 C 108.383 83.685 107.167 84.902 107.167 86.403 L 107.167 92.084 L 103.301 88.219 C 102.24 87.158 100.519 87.158 99.458 88.219 C 98.397 89.281 98.397 91.001 99.458 92.062 L 107.167 99.771 L 107.167 115.612 L 107.167 115.615 L 107.167 162.718 C 107.167 164.219 108.383 165.436 109.884 165.436 C 111.386 165.436 112.602 164.219 112.602 162.718 L 112.602 116.739 L 121.419 107.923 C 122.48 106.861 122.48 105.141 121.419 104.079 Z" fill="#88ba31"></path>
  <path d="M 5.342 124.945 C 5.342 150.687 16.945 150.228 31.258 150.228 C 45.57 150.228 57.173 150.687 57.173 124.945 C 57.173 99.203 42.549 70.161 31.258 70.161 C 19.966 70.161 5.342 99.203 5.342 124.945 Z" fill="#a3e440"></path>
  <path d="M 5.342 124.945 C 5.342 150.687 16.945 150.228 31.258 150.228 C 45.57 150.228 57.173 150.687 57.173 124.945 C 57.173 99.203 42.549 70.161 31.258 70.161 C 19.966 70.161 5.342 99.203 5.342 124.945 Z" fill="#99d53b"></path>
  <path d="M 57.172 124.945 C 57.172 150.688 45.571 150.229 31.259 150.229 C 29.398 150.229 27.588 150.236 25.84 150.192 C 37.55 149.906 46.335 147.344 46.335 124.945 C 46.335 103.191 35.892 79.08 25.84 72.134 C 27.683 70.856 29.511 70.161 31.259 70.161 C 42.549 70.161 57.172 99.202 57.172 124.945 Z" fill="#8dc637"></path>
  <path d="M 81.886 125.913 C 81.886 144.936 73.311 144.597 62.734 144.597 C 52.156 144.597 43.582 144.936 43.582 125.913 C 43.582 106.889 54.389 85.427 62.734 85.427 C 71.078 85.427 81.886 106.889 81.886 125.913 Z" fill="#a3e440"></path>
  <path d="M 81.886 125.913 C 81.886 144.936 73.311 144.597 62.734 144.597 C 52.156 144.597 43.582 144.936 43.582 125.913 C 43.582 106.889 54.389 85.427 62.734 85.427 C 71.078 85.427 81.886 106.889 81.886 125.913 Z" fill="#a3e440"></path>
  <path d="M 81.884 125.911 C 81.884 144.936 73.313 144.596 62.732 144.596 C 60.76 144.596 58.859 144.607 57.068 144.502 C 64.879 144.05 70.555 141.389 70.555 125.911 C 70.555 111.031 63.942 94.659 57.068 88.23 C 58.979 86.442 60.916 85.425 62.732 85.425 C 71.079 85.425 81.884 106.89 81.884 125.911 Z" fill="#99d53b"></path>
  <path d="M 74.268 120.9 C 73.207 119.839 71.486 119.839 70.425 120.9 L 65.452 125.873 L 65.452 112.568 C 65.452 111.067 64.235 109.851 62.734 109.851 C 61.233 109.851 60.016 111.067 60.016 112.568 L 60.016 132.434 L 60.016 132.435 L 60.016 162.718 C 60.016 164.22 61.233 165.436 62.734 165.436 C 64.235 165.436 65.452 164.22 65.452 162.718 L 65.452 133.56 L 74.268 124.744 C 75.329 123.682 75.329 121.962 74.268 120.9 Z" fill="#88ba31"></path>
  <path d="M 183.963 135.18 C 183.963 148.89 177.783 148.646 170.16 148.646 C 162.536 148.646 156.356 148.891 156.356 135.18 C 156.356 121.469 164.146 106.001 170.16 106.001 C 176.174 106.001 183.963 121.47 183.963 135.18 Z" fill="#a3e440"></path>
  <path d="M 183.963 135.18 C 183.963 148.89 177.783 148.646 170.16 148.646 C 162.536 148.646 156.356 148.891 156.356 135.18 C 156.356 121.469 164.146 106.001 170.16 106.001 C 176.174 106.001 183.963 121.47 183.963 135.18 Z" fill="#a3e440"></path>
  <path d="M 183.963 135.181 C 183.963 148.889 177.781 148.647 170.158 148.647 C 168.536 148.647 166.98 148.658 165.535 148.542 C 170.885 148.118 174.711 145.972 174.711 135.181 C 174.711 124.847 170.288 113.518 165.535 108.558 C 167.085 106.937 168.674 105.999 170.158 105.999 C 176.174 106 183.963 121.47 183.963 135.181 Z" fill="#99d53b"></path>
  <path d="M 177.341 132.698 C 176.28 131.637 174.559 131.637 173.498 132.698 L 172.877 133.319 L 172.877 125.563 C 172.877 124.062 171.661 122.845 170.16 122.845 C 168.658 122.845 167.442 124.062 167.442 125.563 L 167.442 139.88 L 167.442 139.882 L 167.442 162.719 C 167.442 164.22 168.658 165.437 170.16 165.437 C 171.661 165.437 172.877 164.22 172.877 162.719 L 172.877 141.006 L 177.342 136.542 C 178.403 135.48 178.403 133.759 177.341 132.698 Z" fill="#88ba31"></path>
  <path d="M 38.148 114.957 C 39.21 113.895 39.21 112.175 38.148 111.113 C 37.087 110.052 35.366 110.052 34.305 111.113 L 33.975 111.443 L 33.975 103.962 C 33.975 102.46 32.759 101.244 31.258 101.244 C 29.757 101.244 28.54 102.46 28.54 103.962 L 28.54 127.209 L 25.118 123.787 C 24.057 122.726 22.336 122.726 21.275 123.787 C 20.214 124.849 20.214 126.57 21.275 127.631 L 28.54 134.896 L 28.54 162.718 C 28.54 164.22 29.757 165.436 31.258 165.436 C 32.759 165.436 33.976 164.22 33.976 162.718 L 33.976 133.771 C 33.976 133.77 33.976 133.77 33.976 133.769 L 33.976 119.13 L 38.148 114.957 Z" fill="#88ba31"></path>
  <path d="M 185.049 167.213 L 5.15 167.213 C 3.649 167.213 2.432 165.997 2.432 164.495 C 2.432 162.994 3.649 161.778 5.15 161.778 L 185.049 161.778 C 186.55 161.778 187.767 162.994 187.767 164.495 C 187.767 165.997 186.55 167.213 185.049 167.213 Z" fill="#0a5b36"></path>
</svg>